# xmcd CD database file
#
# Track frame offsets:
#	150
#	28725
#	63780
#	102457
#	117472
#	150562
#	163402
#	189435
#	216060
#
# Disc length: 3306 seconds
#
# Revision: 1
# Processed by: cddbd v1.5.1PL0 Copyright (c) Steve Scherf et al.
# Submitted via: CDex 1.51
#
DISCID=7a0ce809
DTITLE=Özay - Antiquated Love
DYEAR=1995
DGENRE=Jazz
TTITLE0=Antiquated Love
TTITLE1=Ancient Dancer
TTITLE2=Intuitively
TTITLE3=En Güzel Deniz
TTITLE4=Without Rhyme Or Reason
TTITLE5=I See Your Face Before Me
TTITLE6=I Thought About You (For Tom)
TTITLE7=Peaceful Heart - Gently Spint
TTITLE8=Istanblue
EXTD=YEAR: 1995
EXTT0=
EXTT1=
EXTT2=
EXTT3=
EXTT4=
EXTT5=
EXTT6=
EXTT7=
EXTT8=
PLAYORDER=
